# xmcd
#
# Track frame offsets:
#	150
#	13557
#	28850
#	42857
#	53182
#	60962
#	68150
#	81412
#	90175
#	101120
#	113010
#	124555
#	134967
#	144132
#	165297
#	174055
#	185805
#	200145
#
# Disc length: 2810
#
# Revision: 2
# Processed by: cddbd v1.5.1PL0 Copyright (c) Steve Scherf et al.
# Submitted via: audiograbber 1.81.03
# Normalized: r1:DSETVAR1
#
DISCID=ee0af812
DTITLE=Various Artist - The Allstar Country Concert  Disc 2
DYEAR=1900
DGENRE=Country
TTITLE0=George Jones - No Show Jones
TTITLE1=George Jones - He Stopped Loving Her Today
TTITLE2=George Jones - Who"s Gonna Fill Their Shoes
TTITLE3=George Jones - The One I Loved Back Then
TTITLE4=Johnny Tillotson - Send Me The Pillow That You Dream On
TTITLE5=Johnny Tillotson - Heartaches By The Number
TTITLE6=Johnny Tillotson - Let It Be Me
TTITLE7=Johnny Tillotson - That's Alright Mama
TTITLE8=Waylon Jennings - Sally Was A Good Old Girl
TTITLE9=Waylon Jennings - Don't Think Twice
TTITLE10=Waylon Jennings - Crying
TTITLE11=Waylon Jennings - Dream Baby
TTITLE12=Dottie West - Rocky Top
TTITLE13=Dottie West - Patsy Cline - Medley - Crazy, I Fall To Pieces, Sweet Dreams, Crazy
TTITLE14=Don Gibson - Blue, Blue Day
TTITLE15=Don Gibson - Oh Lonesome Me
TTITLE16=Don Gibson - I Can't Stop Loving You
TTITLE17=Don Gibson - Lonesome Number One
EXTD=
EXTT0=
EXTT1=
EXTT2=
EXTT3=
EXTT4=
EXTT5=
EXTT6=
EXTT7=
EXTT8=
EXTT9=
EXTT10=
EXTT11=
EXTT12=
EXTT13=
EXTT14=
EXTT15=
EXTT16=
EXTT17=
PLAYORDER=
